<mxfile host="app.diagrams.net" modified="2024-04-15T14:56:32.477Z" agent="Mozilla/5.0 (Windows NT 10.0; Win64; x64) AppleWebKit/537.36 (KHTML, like Gecko) Chrome/123.0.0.0 Safari/537.36" etag="hVElRmmpaZbwx0rhnp42" version="24.2.3" type="device">
  <diagram name="Page-1" id="M_UCsA_aWbAp7KxORfbI">
    <mxGraphModel dx="3500" dy="2170" grid="0" gridSize="10" guides="1" tooltips="1" connect="1" arrows="1" fold="1" page="1" pageScale="1" pageWidth="850" pageHeight="1100" background="#154463" math="0" shadow="0">
      <root>
        <mxCell id="0" />
        <mxCell id="1" parent="0" />
        <mxCell id="dRBJDxNIwV2UQg4q_vEd-1" value="Block Diagram" style="swimlane;startSize=216;fontSize=50;strokeColor=#3A74D7;strokeWidth=22;" parent="1" vertex="1">
          <mxGeometry x="259" y="205" width="3599" height="1945" as="geometry" />
        </mxCell>
        <mxCell id="dRBJDxNIwV2UQg4q_vEd-2" value="" style="rounded=0;whiteSpace=wrap;html=1;fillColor=none;strokeWidth=20;strokeColor=#CCE5FF;" parent="dRBJDxNIwV2UQg4q_vEd-1" vertex="1">
          <mxGeometry x="892" y="840" width="1188" height="492" as="geometry" />
        </mxCell>
        <mxCell id="dRBJDxNIwV2UQg4q_vEd-3" value="&lt;h1 style=&quot;&quot;&gt;&lt;font color=&quot;#ffffcc&quot; style=&quot;font-size: 61px;&quot;&gt;MCU&lt;/font&gt;&lt;/h1&gt;" style="text;html=1;spacing=5;spacingTop=-20;whiteSpace=wrap;overflow=hidden;rounded=0;align=center;verticalAlign=middle;strokeColor=#FFFFFF;strokeWidth=5;fontStyle=1" parent="dRBJDxNIwV2UQg4q_vEd-1" vertex="1">
          <mxGeometry x="1320" y="1035" width="327" height="115" as="geometry" />
        </mxCell>
        <mxCell id="8Ux44cK4dtK3aO80QM7G-43" style="edgeStyle=orthogonalEdgeStyle;rounded=0;orthogonalLoop=1;jettySize=auto;html=1;exitX=0.75;exitY=1;exitDx=0;exitDy=0;strokeWidth=6;strokeColor=#FFCCFF;" parent="dRBJDxNIwV2UQg4q_vEd-1" source="dRBJDxNIwV2UQg4q_vEd-6" target="8Ux44cK4dtK3aO80QM7G-30" edge="1">
          <mxGeometry relative="1" as="geometry">
            <Array as="points">
              <mxPoint x="1150" y="994" />
              <mxPoint x="1203" y="994" />
              <mxPoint x="1203" y="1238" />
              <mxPoint x="1336" y="1238" />
            </Array>
          </mxGeometry>
        </mxCell>
        <mxCell id="dRBJDxNIwV2UQg4q_vEd-6" value="&lt;h1 style=&quot;font-size: 43px;&quot;&gt;&lt;font color=&quot;#ffffcc&quot;&gt;DIO&lt;/font&gt;&lt;/h1&gt;" style="text;html=1;spacing=5;spacingTop=-20;whiteSpace=wrap;overflow=hidden;rounded=0;align=center;verticalAlign=middle;strokeColor=default;strokeWidth=12;" parent="dRBJDxNIwV2UQg4q_vEd-1" vertex="1">
          <mxGeometry x="1007" y="900" width="190" height="72" as="geometry" />
        </mxCell>
        <mxCell id="dRBJDxNIwV2UQg4q_vEd-7" value="&lt;h1 style=&quot;font-size: 43px;&quot;&gt;&lt;font color=&quot;#ffffcc&quot;&gt;EXT_INT0&lt;/font&gt;&lt;/h1&gt;" style="text;html=1;spacing=5;spacingTop=-20;whiteSpace=wrap;overflow=hidden;rounded=0;align=center;verticalAlign=middle;strokeColor=default;strokeWidth=12;" parent="dRBJDxNIwV2UQg4q_vEd-1" vertex="1">
          <mxGeometry x="921" y="1210" width="190" height="72" as="geometry" />
        </mxCell>
        <mxCell id="dRBJDxNIwV2UQg4q_vEd-8" style="edgeStyle=orthogonalEdgeStyle;rounded=0;orthogonalLoop=1;jettySize=auto;html=1;exitX=0;exitY=0.25;exitDx=0;exitDy=0;entryX=1;entryY=0.25;entryDx=0;entryDy=0;strokeWidth=8;endArrow=classic;endFill=1;strokeColor=#70A9FF;" parent="dRBJDxNIwV2UQg4q_vEd-1" source="dRBJDxNIwV2UQg4q_vEd-6" target="dRBJDxNIwV2UQg4q_vEd-9" edge="1">
          <mxGeometry relative="1" as="geometry">
            <mxPoint x="612" y="611.9999999999995" as="sourcePoint" />
          </mxGeometry>
        </mxCell>
        <mxCell id="dRBJDxNIwV2UQg4q_vEd-9" value="&lt;h1 style=&quot;font-size: 43px;&quot;&gt;&lt;font color=&quot;#ffffcc&quot;&gt;LCD&lt;/font&gt;&lt;/h1&gt;&lt;div style=&quot;font-size: 43px;&quot;&gt;&lt;font style=&quot;font-size: 43px;&quot; color=&quot;#ffffcc&quot;&gt;PA3,PA2,PB0,PB1,PB2,PB4&lt;/font&gt;&lt;/div&gt;" style="text;html=1;spacing=5;spacingTop=-20;whiteSpace=wrap;overflow=hidden;rounded=0;align=center;verticalAlign=middle;strokeColor=#000000;strokeWidth=6;" parent="dRBJDxNIwV2UQg4q_vEd-1" vertex="1">
          <mxGeometry x="81" y="780" width="579" height="156" as="geometry" />
        </mxCell>
        <mxCell id="dRBJDxNIwV2UQg4q_vEd-11" value="&lt;h1 style=&quot;font-size: 43px;&quot;&gt;&lt;font color=&quot;#ffffcc&quot;&gt;Braking_BTN&lt;/font&gt;&lt;/h1&gt;&lt;div style=&quot;font-size: 43px;&quot;&gt;&lt;font style=&quot;font-size: 43px;&quot; color=&quot;#ffffcc&quot;&gt;INT1 (PD3)&lt;/font&gt;&lt;/div&gt;" style="text;html=1;spacing=5;spacingTop=-20;whiteSpace=wrap;overflow=hidden;rounded=0;align=center;verticalAlign=middle;strokeColor=#000000;strokeWidth=6;" parent="dRBJDxNIwV2UQg4q_vEd-1" vertex="1">
          <mxGeometry x="183" y="1432" width="325" height="156" as="geometry" />
        </mxCell>
        <mxCell id="dRBJDxNIwV2UQg4q_vEd-15" value="" style="endArrow=classic;html=1;rounded=0;exitX=0;exitY=1;exitDx=0;exitDy=0;entryX=0.5;entryY=0;entryDx=0;entryDy=0;strokeWidth=6;endFill=1;strokeColor=#999900;" parent="dRBJDxNIwV2UQg4q_vEd-1" source="dRBJDxNIwV2UQg4q_vEd-7" target="dRBJDxNIwV2UQg4q_vEd-11" edge="1">
          <mxGeometry width="50" height="50" relative="1" as="geometry">
            <mxPoint x="970" y="1438" as="sourcePoint" />
            <mxPoint x="920" y="1488" as="targetPoint" />
          </mxGeometry>
        </mxCell>
        <mxCell id="dRBJDxNIwV2UQg4q_vEd-16" style="edgeStyle=orthogonalEdgeStyle;rounded=0;orthogonalLoop=1;jettySize=auto;html=1;exitX=0.5;exitY=1;exitDx=0;exitDy=0;entryX=0;entryY=0;entryDx=0;entryDy=0;strokeWidth=5;endArrow=none;endFill=0;" parent="dRBJDxNIwV2UQg4q_vEd-1" source="dRBJDxNIwV2UQg4q_vEd-17" target="dRBJDxNIwV2UQg4q_vEd-6" edge="1">
          <mxGeometry relative="1" as="geometry" />
        </mxCell>
        <mxCell id="dRBJDxNIwV2UQg4q_vEd-17" value="&lt;h1 style=&quot;font-size: 43px;&quot;&gt;&lt;font color=&quot;#ffffcc&quot;&gt;Blue led&lt;/font&gt;&lt;/h1&gt;&lt;div style=&quot;font-size: 43px;&quot;&gt;&lt;font style=&quot;font-size: 43px;&quot; color=&quot;#ffffcc&quot;&gt;(Accelerate)&lt;/font&gt;&lt;/div&gt;&lt;div style=&quot;font-size: 43px;&quot;&gt;&lt;font style=&quot;font-size: 43px;&quot; color=&quot;#ffffcc&quot;&gt;PA5&lt;/font&gt;&lt;/div&gt;" style="text;html=1;spacing=5;spacingTop=-20;whiteSpace=wrap;overflow=hidden;rounded=0;align=center;verticalAlign=middle;strokeColor=#000000;strokeWidth=6;" parent="dRBJDxNIwV2UQg4q_vEd-1" vertex="1">
          <mxGeometry x="414" y="300" width="324" height="204" as="geometry" />
        </mxCell>
        <mxCell id="dRBJDxNIwV2UQg4q_vEd-22" style="edgeStyle=orthogonalEdgeStyle;rounded=0;orthogonalLoop=1;jettySize=auto;html=1;exitX=0.25;exitY=1;exitDx=0;exitDy=0;entryX=0.75;entryY=0;entryDx=0;entryDy=0;strokeWidth=5;endArrow=none;endFill=0;" parent="dRBJDxNIwV2UQg4q_vEd-1" source="dRBJDxNIwV2UQg4q_vEd-23" target="dRBJDxNIwV2UQg4q_vEd-6" edge="1">
          <mxGeometry relative="1" as="geometry">
            <Array as="points">
              <mxPoint x="931" y="570" />
              <mxPoint x="1120" y="570" />
              <mxPoint x="1120" y="900" />
            </Array>
          </mxGeometry>
        </mxCell>
        <mxCell id="dRBJDxNIwV2UQg4q_vEd-23" value="&lt;h1 style=&quot;font-size: 43px;&quot;&gt;&lt;font color=&quot;#ffffcc&quot;&gt;Yellow led&lt;/font&gt;&lt;/h1&gt;&lt;div style=&quot;font-size: 43px;&quot;&gt;&lt;font style=&quot;font-size: 43px;&quot; color=&quot;#ffffcc&quot;&gt;(ACCS brake)&lt;/font&gt;&lt;/div&gt;&lt;div style=&quot;font-size: 43px;&quot;&gt;&lt;font style=&quot;font-size: 43px;&quot; color=&quot;#ffffcc&quot;&gt;PA6&lt;/font&gt;&lt;/div&gt;" style="text;html=1;spacing=5;spacingTop=-20;whiteSpace=wrap;overflow=hidden;rounded=0;align=center;verticalAlign=middle;strokeColor=#000000;strokeWidth=6;" parent="dRBJDxNIwV2UQg4q_vEd-1" vertex="1">
          <mxGeometry x="850" y="290" width="324" height="204" as="geometry" />
        </mxCell>
        <mxCell id="dRBJDxNIwV2UQg4q_vEd-24" value="&lt;h1 style=&quot;font-size: 43px;&quot;&gt;&lt;font color=&quot;#ffffcc&quot;&gt;Buzzer&lt;/font&gt;&lt;/h1&gt;&lt;div style=&quot;font-size: 43px;&quot;&gt;&lt;font style=&quot;font-size: 43px;&quot; color=&quot;#ffffcc&quot;&gt;PC6&lt;/font&gt;&lt;/div&gt;" style="text;html=1;spacing=5;spacingTop=-20;whiteSpace=wrap;overflow=hidden;rounded=0;align=center;verticalAlign=middle;strokeColor=#000000;strokeWidth=6;" parent="dRBJDxNIwV2UQg4q_vEd-1" vertex="1">
          <mxGeometry x="1270" y="300" width="358" height="168" as="geometry" />
        </mxCell>
        <mxCell id="8Ux44cK4dtK3aO80QM7G-8" style="edgeStyle=orthogonalEdgeStyle;rounded=0;orthogonalLoop=1;jettySize=auto;html=1;exitX=0.5;exitY=0;exitDx=0;exitDy=0;entryX=0.5;entryY=1;entryDx=0;entryDy=0;strokeWidth=6;strokeColor=#E6D0DE;" parent="dRBJDxNIwV2UQg4q_vEd-1" source="dRBJDxNIwV2UQg4q_vEd-27" target="dRBJDxNIwV2UQg4q_vEd-32" edge="1">
          <mxGeometry relative="1" as="geometry">
            <Array as="points">
              <mxPoint x="1675" y="709" />
              <mxPoint x="1879" y="709" />
            </Array>
          </mxGeometry>
        </mxCell>
        <mxCell id="8Ux44cK4dtK3aO80QM7G-9" style="edgeStyle=orthogonalEdgeStyle;rounded=0;orthogonalLoop=1;jettySize=auto;html=1;exitX=1;exitY=0.5;exitDx=0;exitDy=0;entryX=0;entryY=0.5;entryDx=0;entryDy=0;strokeWidth=6;strokeColor=#67AB9F;" parent="dRBJDxNIwV2UQg4q_vEd-1" source="dRBJDxNIwV2UQg4q_vEd-27" target="dRBJDxNIwV2UQg4q_vEd-39" edge="1">
          <mxGeometry relative="1" as="geometry">
            <Array as="points">
              <mxPoint x="1770" y="784" />
              <mxPoint x="1970" y="784" />
              <mxPoint x="1970" y="588" />
            </Array>
          </mxGeometry>
        </mxCell>
        <mxCell id="8Ux44cK4dtK3aO80QM7G-12" style="edgeStyle=orthogonalEdgeStyle;rounded=0;orthogonalLoop=1;jettySize=auto;html=1;exitX=0.75;exitY=1;exitDx=0;exitDy=0;entryX=0.5;entryY=1;entryDx=0;entryDy=0;strokeWidth=6;strokeColor=#9340FF;" parent="dRBJDxNIwV2UQg4q_vEd-1" source="dRBJDxNIwV2UQg4q_vEd-27" target="dRBJDxNIwV2UQg4q_vEd-42" edge="1">
          <mxGeometry relative="1" as="geometry">
            <Array as="points">
              <mxPoint x="1723" y="1015" />
              <mxPoint x="2407" y="1015" />
            </Array>
          </mxGeometry>
        </mxCell>
        <mxCell id="8Ux44cK4dtK3aO80QM7G-13" style="edgeStyle=orthogonalEdgeStyle;rounded=0;orthogonalLoop=1;jettySize=auto;html=1;exitX=0.75;exitY=1;exitDx=0;exitDy=0;entryX=0.5;entryY=1;entryDx=0;entryDy=0;strokeWidth=6;strokeColor=#2BFF6B;" parent="dRBJDxNIwV2UQg4q_vEd-1" source="dRBJDxNIwV2UQg4q_vEd-27" target="dRBJDxNIwV2UQg4q_vEd-43" edge="1">
          <mxGeometry relative="1" as="geometry">
            <Array as="points">
              <mxPoint x="1723" y="1034" />
              <mxPoint x="2776" y="1034" />
            </Array>
          </mxGeometry>
        </mxCell>
        <mxCell id="5MT-RSpb8Q7yReOkMD-z-2" style="edgeStyle=orthogonalEdgeStyle;rounded=0;orthogonalLoop=1;jettySize=auto;html=1;exitX=0.75;exitY=1;exitDx=0;exitDy=0;entryX=0.5;entryY=1;entryDx=0;entryDy=0;strokeWidth=6;strokeColor=#6666FF;" parent="dRBJDxNIwV2UQg4q_vEd-1" source="dRBJDxNIwV2UQg4q_vEd-27" target="5MT-RSpb8Q7yReOkMD-z-1" edge="1">
          <mxGeometry relative="1" as="geometry">
            <Array as="points">
              <mxPoint x="1722" y="1061" />
              <mxPoint x="3130" y="1061" />
            </Array>
          </mxGeometry>
        </mxCell>
        <mxCell id="dRBJDxNIwV2UQg4q_vEd-27" value="&lt;h1 style=&quot;font-size: 43px;&quot;&gt;&lt;font color=&quot;#ffffcc&quot;&gt;Timer0&lt;/font&gt;&lt;/h1&gt;" style="text;html=1;spacing=5;spacingTop=-20;whiteSpace=wrap;overflow=hidden;rounded=0;align=center;verticalAlign=middle;strokeColor=default;strokeWidth=12;" parent="dRBJDxNIwV2UQg4q_vEd-1" vertex="1">
          <mxGeometry x="1580" y="900" width="190" height="72" as="geometry" />
        </mxCell>
        <mxCell id="dRBJDxNIwV2UQg4q_vEd-30" value="&lt;h1 style=&quot;font-size: 43px;&quot;&gt;&lt;font color=&quot;#ffffcc&quot;&gt;ADC&lt;/font&gt;&lt;/h1&gt;" style="text;html=1;spacing=5;spacingTop=-20;whiteSpace=wrap;overflow=hidden;rounded=0;align=center;verticalAlign=middle;strokeColor=default;strokeWidth=12;" parent="dRBJDxNIwV2UQg4q_vEd-1" vertex="1">
          <mxGeometry x="1649" y="1217" width="190" height="72" as="geometry" />
        </mxCell>
        <mxCell id="dRBJDxNIwV2UQg4q_vEd-32" value="&lt;h1 style=&quot;font-size: 43px;&quot;&gt;&lt;font color=&quot;#ffffcc&quot;&gt;Relay&lt;/font&gt;&lt;/h1&gt;&lt;div style=&quot;font-size: 43px;&quot;&gt;&lt;font style=&quot;font-size: 43px;&quot; color=&quot;#ffffcc&quot;&gt;PC7&lt;/font&gt;&lt;/div&gt;" style="text;html=1;spacing=5;spacingTop=-20;whiteSpace=wrap;overflow=hidden;rounded=0;align=center;verticalAlign=middle;strokeColor=#000000;strokeWidth=6;" parent="dRBJDxNIwV2UQg4q_vEd-1" vertex="1">
          <mxGeometry x="1700" y="300" width="358" height="168" as="geometry" />
        </mxCell>
        <mxCell id="dRBJDxNIwV2UQg4q_vEd-39" value="&lt;h1 style=&quot;font-size: 43px;&quot;&gt;&lt;font color=&quot;#ffffcc&quot;&gt;DC motor&lt;/font&gt;&lt;/h1&gt;&lt;div style=&quot;font-size: 43px;&quot;&gt;&lt;font color=&quot;#ffffcc&quot;&gt;PB5 , PB6 , OCO&lt;/font&gt;&lt;/div&gt;" style="text;html=1;spacing=5;spacingTop=-20;whiteSpace=wrap;overflow=hidden;rounded=0;align=center;verticalAlign=middle;strokeColor=#000000;strokeWidth=6;" parent="dRBJDxNIwV2UQg4q_vEd-1" vertex="1">
          <mxGeometry x="2170" y="504" width="358" height="168" as="geometry" />
        </mxCell>
        <mxCell id="dRBJDxNIwV2UQg4q_vEd-42" value="&lt;h1 style=&quot;font-size: 43px;&quot;&gt;&lt;font color=&quot;#ffffcc&quot;&gt;Driving&amp;nbsp;&lt;/font&gt;&lt;/h1&gt;&lt;div&gt;&lt;font style=&quot;font-size: 48px;&quot; color=&quot;#ffffcc&quot;&gt;Monetring&lt;/font&gt;&lt;/div&gt;" style="text;html=1;spacing=5;spacingTop=-20;whiteSpace=wrap;overflow=hidden;rounded=0;align=center;verticalAlign=middle;strokeColor=#000000;strokeWidth=6;" parent="dRBJDxNIwV2UQg4q_vEd-1" vertex="1">
          <mxGeometry x="2284" y="796" width="246" height="176" as="geometry" />
        </mxCell>
        <mxCell id="dRBJDxNIwV2UQg4q_vEd-43" value="&lt;h1 style=&quot;font-size: 43px;&quot;&gt;&lt;font color=&quot;#ffffcc&quot;&gt;Real Time clock&lt;/font&gt;&lt;/h1&gt;" style="text;html=1;spacing=5;spacingTop=-20;whiteSpace=wrap;overflow=hidden;rounded=0;align=center;verticalAlign=middle;strokeColor=#000000;strokeWidth=6;" parent="dRBJDxNIwV2UQg4q_vEd-1" vertex="1">
          <mxGeometry x="2655" y="798" width="242" height="176" as="geometry" />
        </mxCell>
        <mxCell id="dRBJDxNIwV2UQg4q_vEd-49" style="edgeStyle=orthogonalEdgeStyle;rounded=0;orthogonalLoop=1;jettySize=auto;html=1;exitX=1;exitY=0.5;exitDx=0;exitDy=0;strokeWidth=6;strokeColor=#66FFB3;" parent="dRBJDxNIwV2UQg4q_vEd-1" source="dRBJDxNIwV2UQg4q_vEd-47" target="dRBJDxNIwV2UQg4q_vEd-48" edge="1">
          <mxGeometry relative="1" as="geometry">
            <Array as="points">
              <mxPoint x="2446" y="1253" />
              <mxPoint x="2446" y="1419" />
            </Array>
          </mxGeometry>
        </mxCell>
        <mxCell id="dRBJDxNIwV2UQg4q_vEd-47" value="&lt;h1 style=&quot;font-size: 43px;&quot;&gt;&lt;font color=&quot;#ffffcc&quot;&gt;Timer1&lt;/font&gt;&lt;/h1&gt;" style="text;html=1;spacing=5;spacingTop=-20;whiteSpace=wrap;overflow=hidden;rounded=0;align=center;verticalAlign=middle;strokeColor=default;strokeWidth=12;" parent="dRBJDxNIwV2UQg4q_vEd-1" vertex="1">
          <mxGeometry x="1864" y="1217" width="190" height="72" as="geometry" />
        </mxCell>
        <mxCell id="dRBJDxNIwV2UQg4q_vEd-48" value="&lt;h1 style=&quot;font-size: 43px;&quot;&gt;&lt;font color=&quot;#ffffcc&quot;&gt;Ultrasonic capture unit PD6(ICP1)&lt;/font&gt;&lt;/h1&gt;" style="text;html=1;spacing=5;spacingTop=-20;whiteSpace=wrap;overflow=hidden;rounded=0;align=center;verticalAlign=middle;strokeColor=#000000;strokeWidth=6;" parent="dRBJDxNIwV2UQg4q_vEd-1" vertex="1">
          <mxGeometry x="2465" y="1309" width="510" height="220" as="geometry" />
        </mxCell>
        <mxCell id="IlLENoKvePEV59O8d0qm-2" value="&lt;h1 style=&quot;font-size: 43px;&quot;&gt;&lt;font color=&quot;#ffffcc&quot;&gt;I2C&lt;/font&gt;&lt;/h1&gt;" style="text;html=1;spacing=5;spacingTop=-20;whiteSpace=wrap;overflow=hidden;rounded=0;align=center;verticalAlign=middle;strokeColor=default;strokeWidth=12;" parent="dRBJDxNIwV2UQg4q_vEd-1" vertex="1">
          <mxGeometry x="931" y="1080" width="190" height="72" as="geometry" />
        </mxCell>
        <mxCell id="IlLENoKvePEV59O8d0qm-6" style="edgeStyle=orthogonalEdgeStyle;rounded=0;orthogonalLoop=1;jettySize=auto;html=1;exitX=0;exitY=0.5;exitDx=0;exitDy=0;entryX=1;entryY=0.25;entryDx=0;entryDy=0;strokeWidth=6;strokeColor=#FF0080;" parent="dRBJDxNIwV2UQg4q_vEd-1" source="IlLENoKvePEV59O8d0qm-2" target="IlLENoKvePEV59O8d0qm-5" edge="1">
          <mxGeometry relative="1" as="geometry">
            <Array as="points">
              <mxPoint x="735" y="1116" />
              <mxPoint x="735" y="1116" />
            </Array>
          </mxGeometry>
        </mxCell>
        <mxCell id="IlLENoKvePEV59O8d0qm-5" value="&lt;h1 style=&quot;font-size: 43px;&quot;&gt;&lt;font color=&quot;#ffffcc&quot;&gt;External EEPROM&lt;/font&gt;&lt;/h1&gt;" style="text;html=1;spacing=5;spacingTop=-20;whiteSpace=wrap;overflow=hidden;rounded=0;align=center;verticalAlign=middle;strokeColor=#000000;strokeWidth=6;" parent="dRBJDxNIwV2UQg4q_vEd-1" vertex="1">
          <mxGeometry x="203" y="1077" width="325" height="156" as="geometry" />
        </mxCell>
        <mxCell id="8Ux44cK4dtK3aO80QM7G-4" style="edgeStyle=orthogonalEdgeStyle;rounded=0;orthogonalLoop=1;jettySize=auto;html=1;exitX=0.25;exitY=0;exitDx=0;exitDy=0;entryX=0.603;entryY=1.047;entryDx=0;entryDy=0;entryPerimeter=0;strokeColor=#EA6B66;strokeWidth=6;" parent="dRBJDxNIwV2UQg4q_vEd-1" source="dRBJDxNIwV2UQg4q_vEd-27" target="dRBJDxNIwV2UQg4q_vEd-24" edge="1">
          <mxGeometry relative="1" as="geometry" />
        </mxCell>
        <mxCell id="8Ux44cK4dtK3aO80QM7G-10" style="edgeStyle=orthogonalEdgeStyle;rounded=0;orthogonalLoop=1;jettySize=auto;html=1;strokeWidth=6;strokeColor=#67AB9F;endArrow=classic;endFill=1;entryX=0;entryY=0.75;entryDx=0;entryDy=0;exitX=0.75;exitY=0;exitDx=0;exitDy=0;" parent="dRBJDxNIwV2UQg4q_vEd-1" source="dRBJDxNIwV2UQg4q_vEd-6" target="dRBJDxNIwV2UQg4q_vEd-39" edge="1">
          <mxGeometry relative="1" as="geometry">
            <mxPoint x="1269" y="794" as="sourcePoint" />
            <mxPoint x="1959" y="659" as="targetPoint" />
            <Array as="points">
              <mxPoint x="1186" y="900" />
              <mxPoint x="1186" y="787" />
              <mxPoint x="1959" y="787" />
              <mxPoint x="1959" y="630" />
            </Array>
          </mxGeometry>
        </mxCell>
        <mxCell id="8Ux44cK4dtK3aO80QM7G-7" style="edgeStyle=orthogonalEdgeStyle;rounded=0;orthogonalLoop=1;jettySize=auto;html=1;exitX=0.642;exitY=0.014;exitDx=0;exitDy=0;entryX=0.198;entryY=1.04;entryDx=0;entryDy=0;entryPerimeter=0;strokeWidth=6;strokeColor=#E6D0DE;exitPerimeter=0;" parent="dRBJDxNIwV2UQg4q_vEd-1" source="dRBJDxNIwV2UQg4q_vEd-6" target="dRBJDxNIwV2UQg4q_vEd-32" edge="1">
          <mxGeometry relative="1" as="geometry">
            <mxPoint x="1139.5" y="962" as="sourcePoint" />
            <Array as="points">
              <mxPoint x="1129" y="714" />
              <mxPoint x="1771" y="714" />
            </Array>
          </mxGeometry>
        </mxCell>
        <mxCell id="8Ux44cK4dtK3aO80QM7G-3" style="edgeStyle=orthogonalEdgeStyle;rounded=0;orthogonalLoop=1;jettySize=auto;html=1;strokeColor=#EA6B66;strokeWidth=6;entryX=0.176;entryY=1.004;entryDx=0;entryDy=0;entryPerimeter=0;" parent="dRBJDxNIwV2UQg4q_vEd-1" source="dRBJDxNIwV2UQg4q_vEd-6" target="dRBJDxNIwV2UQg4q_vEd-24" edge="1">
          <mxGeometry relative="1" as="geometry">
            <mxPoint x="1139.5" y="962" as="sourcePoint" />
            <Array as="points">
              <mxPoint x="1138" y="685" />
              <mxPoint x="1333" y="685" />
            </Array>
            <mxPoint x="1317" y="480" as="targetPoint" />
          </mxGeometry>
        </mxCell>
        <mxCell id="dRBJDxNIwV2UQg4q_vEd-10" value="&lt;h1 style=&quot;font-size: 43px;&quot;&gt;&lt;font color=&quot;#ffffcc&quot;&gt;Accelerate_Potentiometer&lt;/font&gt;&lt;/h1&gt;&lt;div style=&quot;font-size: 43px;&quot;&gt;&lt;font style=&quot;font-size: 43px;&quot; color=&quot;#ffffcc&quot;&gt;PA0&lt;/font&gt;&lt;/div&gt;" style="text;html=1;spacing=5;spacingTop=-20;whiteSpace=wrap;overflow=hidden;rounded=0;align=center;verticalAlign=middle;strokeColor=#000000;strokeWidth=6;" parent="dRBJDxNIwV2UQg4q_vEd-1" vertex="1">
          <mxGeometry x="1809" y="1536" width="687" height="156" as="geometry" />
        </mxCell>
        <mxCell id="8Ux44cK4dtK3aO80QM7G-14" style="edgeStyle=orthogonalEdgeStyle;rounded=0;orthogonalLoop=1;jettySize=auto;html=1;exitX=0.5;exitY=1;exitDx=0;exitDy=0;entryX=0.433;entryY=-0.002;entryDx=0;entryDy=0;entryPerimeter=0;strokeWidth=6;strokeColor=#FFB366;" parent="dRBJDxNIwV2UQg4q_vEd-1" source="dRBJDxNIwV2UQg4q_vEd-30" target="dRBJDxNIwV2UQg4q_vEd-10" edge="1">
          <mxGeometry relative="1" as="geometry" />
        </mxCell>
        <mxCell id="8Ux44cK4dtK3aO80QM7G-30" value="Keypad" style="shape=table;startSize=108;container=1;collapsible=0;childLayout=tableLayout;strokeColor=default;fontSize=40;strokeWidth=6;" parent="dRBJDxNIwV2UQg4q_vEd-1" vertex="1">
          <mxGeometry x="1048" y="1503" width="575" height="406" as="geometry" />
        </mxCell>
        <mxCell id="8Ux44cK4dtK3aO80QM7G-31" value="" style="shape=tableRow;horizontal=0;startSize=0;swimlaneHead=0;swimlaneBody=0;strokeColor=inherit;top=0;left=0;bottom=0;right=0;collapsible=0;dropTarget=0;fillColor=none;points=[[0,0.5],[1,0.5]];portConstraint=eastwest;fontSize=16;" parent="8Ux44cK4dtK3aO80QM7G-30" vertex="1">
          <mxGeometry y="108" width="575" height="99" as="geometry" />
        </mxCell>
        <mxCell id="8Ux44cK4dtK3aO80QM7G-32" value="&lt;font style=&quot;font-size: 25px;&quot;&gt;Page L&lt;/font&gt;" style="shape=partialRectangle;html=1;whiteSpace=wrap;connectable=0;strokeColor=inherit;overflow=hidden;fillColor=none;top=0;left=0;bottom=0;right=0;pointerEvents=1;fontSize=16;" parent="8Ux44cK4dtK3aO80QM7G-31" vertex="1">
          <mxGeometry width="192" height="99" as="geometry">
            <mxRectangle width="192" height="99" as="alternateBounds" />
          </mxGeometry>
        </mxCell>
        <mxCell id="8Ux44cK4dtK3aO80QM7G-33" value="Gear box" style="shape=partialRectangle;html=1;whiteSpace=wrap;connectable=0;strokeColor=inherit;overflow=hidden;fillColor=none;top=0;left=0;bottom=0;right=0;pointerEvents=1;fontSize=25;" parent="8Ux44cK4dtK3aO80QM7G-31" vertex="1">
          <mxGeometry x="192" width="191" height="99" as="geometry">
            <mxRectangle width="191" height="99" as="alternateBounds" />
          </mxGeometry>
        </mxCell>
        <mxCell id="8Ux44cK4dtK3aO80QM7G-34" value="&lt;font style=&quot;font-size: 25px;&quot;&gt;page R&lt;/font&gt;" style="shape=partialRectangle;html=1;whiteSpace=wrap;connectable=0;strokeColor=inherit;overflow=hidden;fillColor=none;top=0;left=0;bottom=0;right=0;pointerEvents=1;fontSize=16;" parent="8Ux44cK4dtK3aO80QM7G-31" vertex="1">
          <mxGeometry x="383" width="192" height="99" as="geometry">
            <mxRectangle width="192" height="99" as="alternateBounds" />
          </mxGeometry>
        </mxCell>
        <mxCell id="8Ux44cK4dtK3aO80QM7G-35" value="" style="shape=tableRow;horizontal=0;startSize=0;swimlaneHead=0;swimlaneBody=0;strokeColor=inherit;top=0;left=0;bottom=0;right=0;collapsible=0;dropTarget=0;fillColor=none;points=[[0,0.5],[1,0.5]];portConstraint=eastwest;fontSize=16;" parent="8Ux44cK4dtK3aO80QM7G-30" vertex="1">
          <mxGeometry y="207" width="575" height="100" as="geometry" />
        </mxCell>
        <mxCell id="8Ux44cK4dtK3aO80QM7G-36" value="&lt;font style=&quot;font-size: 25px;&quot;&gt;SL_decrease&lt;/font&gt;" style="shape=partialRectangle;html=1;whiteSpace=wrap;connectable=0;strokeColor=inherit;overflow=hidden;fillColor=none;top=0;left=0;bottom=0;right=0;pointerEvents=1;fontSize=16;" parent="8Ux44cK4dtK3aO80QM7G-35" vertex="1">
          <mxGeometry width="192" height="100" as="geometry">
            <mxRectangle width="192" height="100" as="alternateBounds" />
          </mxGeometry>
        </mxCell>
        <mxCell id="8Ux44cK4dtK3aO80QM7G-37" value="&lt;font style=&quot;font-size: 25px;&quot;&gt;Speed limit&lt;/font&gt;&lt;div style=&quot;font-size: 25px;&quot;&gt;&lt;font style=&quot;font-size: 25px;&quot;&gt;ON/OFF&lt;/font&gt;&lt;/div&gt;" style="shape=partialRectangle;html=1;whiteSpace=wrap;connectable=0;strokeColor=inherit;overflow=hidden;fillColor=none;top=0;left=0;bottom=0;right=0;pointerEvents=1;fontSize=16;" parent="8Ux44cK4dtK3aO80QM7G-35" vertex="1">
          <mxGeometry x="192" width="191" height="100" as="geometry">
            <mxRectangle width="191" height="100" as="alternateBounds" />
          </mxGeometry>
        </mxCell>
        <mxCell id="8Ux44cK4dtK3aO80QM7G-38" value="&lt;font style=&quot;font-size: 25px;&quot;&gt;SL_increase&lt;/font&gt;" style="shape=partialRectangle;html=1;whiteSpace=wrap;connectable=0;strokeColor=inherit;overflow=hidden;fillColor=none;top=0;left=0;bottom=0;right=0;pointerEvents=1;fontSize=16;" parent="8Ux44cK4dtK3aO80QM7G-35" vertex="1">
          <mxGeometry x="383" width="192" height="100" as="geometry">
            <mxRectangle width="192" height="100" as="alternateBounds" />
          </mxGeometry>
        </mxCell>
        <mxCell id="8Ux44cK4dtK3aO80QM7G-39" value="" style="shape=tableRow;horizontal=0;startSize=0;swimlaneHead=0;swimlaneBody=0;strokeColor=inherit;top=0;left=0;bottom=0;right=0;collapsible=0;dropTarget=0;fillColor=none;points=[[0,0.5],[1,0.5]];portConstraint=eastwest;fontSize=16;" parent="8Ux44cK4dtK3aO80QM7G-30" vertex="1">
          <mxGeometry y="307" width="575" height="99" as="geometry" />
        </mxCell>
        <mxCell id="8Ux44cK4dtK3aO80QM7G-40" value="&lt;font style=&quot;font-size: 25px;&quot;&gt;Break Assist&lt;/font&gt;&lt;div style=&quot;font-size: 25px;&quot;&gt;&lt;font style=&quot;font-size: 25px;&quot;&gt;ON/OFF&lt;/font&gt;&lt;/div&gt;" style="shape=partialRectangle;html=1;whiteSpace=wrap;connectable=0;strokeColor=inherit;overflow=hidden;fillColor=none;top=0;left=0;bottom=0;right=0;pointerEvents=1;fontSize=16;" parent="8Ux44cK4dtK3aO80QM7G-39" vertex="1">
          <mxGeometry width="192" height="99" as="geometry">
            <mxRectangle width="192" height="99" as="alternateBounds" />
          </mxGeometry>
        </mxCell>
        <mxCell id="8Ux44cK4dtK3aO80QM7G-41" value="&lt;font style=&quot;font-size: 25px;&quot;&gt;Cruise Control&lt;/font&gt;&lt;div style=&quot;font-size: 25px;&quot;&gt;&lt;font style=&quot;font-size: 25px;&quot;&gt;ON/OFF&lt;/font&gt;&lt;/div&gt;" style="shape=partialRectangle;html=1;whiteSpace=wrap;connectable=0;strokeColor=inherit;overflow=hidden;fillColor=none;top=0;left=0;bottom=0;right=0;pointerEvents=1;fontSize=16;" parent="8Ux44cK4dtK3aO80QM7G-39" vertex="1">
          <mxGeometry x="192" width="191" height="99" as="geometry">
            <mxRectangle width="191" height="99" as="alternateBounds" />
          </mxGeometry>
        </mxCell>
        <mxCell id="8Ux44cK4dtK3aO80QM7G-42" value="&lt;font style=&quot;font-size: 25px;&quot;&gt;driving monitoring&lt;/font&gt;&lt;div style=&quot;font-size: 25px;&quot;&gt;&lt;font style=&quot;font-size: 25px;&quot;&gt;ON/OF&lt;/font&gt;&lt;/div&gt;" style="shape=partialRectangle;html=1;whiteSpace=wrap;connectable=0;strokeColor=inherit;overflow=hidden;fillColor=none;top=0;left=0;bottom=0;right=0;pointerEvents=1;fontSize=16;" parent="8Ux44cK4dtK3aO80QM7G-39" vertex="1">
          <mxGeometry x="383" width="192" height="99" as="geometry">
            <mxRectangle width="192" height="99" as="alternateBounds" />
          </mxGeometry>
        </mxCell>
        <mxCell id="5MT-RSpb8Q7yReOkMD-z-1" value="&lt;h1 style=&quot;font-size: 43px;&quot;&gt;&lt;font color=&quot;#ffffcc&quot;&gt;KM count&amp;nbsp;&lt;/font&gt;&lt;/h1&gt;" style="text;html=1;spacing=5;spacingTop=-20;whiteSpace=wrap;overflow=hidden;rounded=0;align=center;verticalAlign=middle;strokeColor=#000000;strokeWidth=6;" parent="dRBJDxNIwV2UQg4q_vEd-1" vertex="1">
          <mxGeometry x="3009" y="805" width="242" height="176" as="geometry" />
        </mxCell>
        <mxCell id="8xmBWsNR_HgKUjJ1fYXX-3" style="edgeStyle=orthogonalEdgeStyle;rounded=0;orthogonalLoop=1;jettySize=auto;html=1;exitX=0.5;exitY=1;exitDx=0;exitDy=0;strokeWidth=6;strokeColor=#CC0000;" edge="1" parent="dRBJDxNIwV2UQg4q_vEd-1" source="8xmBWsNR_HgKUjJ1fYXX-1" target="8xmBWsNR_HgKUjJ1fYXX-2">
          <mxGeometry relative="1" as="geometry">
            <Array as="points">
              <mxPoint x="1519" y="1445" />
              <mxPoint x="1746" y="1445" />
            </Array>
          </mxGeometry>
        </mxCell>
        <mxCell id="8xmBWsNR_HgKUjJ1fYXX-1" value="&lt;h1 style=&quot;font-size: 43px;&quot;&gt;&lt;font color=&quot;#ffffcc&quot;&gt;UART&lt;/font&gt;&lt;/h1&gt;" style="text;html=1;spacing=5;spacingTop=-20;whiteSpace=wrap;overflow=hidden;rounded=0;align=center;verticalAlign=middle;strokeColor=default;strokeWidth=12;" vertex="1" parent="dRBJDxNIwV2UQg4q_vEd-1">
          <mxGeometry x="1424" y="1215" width="190" height="72" as="geometry" />
        </mxCell>
        <mxCell id="8xmBWsNR_HgKUjJ1fYXX-2" value="&lt;h1 style=&quot;font-size: 43px;&quot;&gt;&lt;font color=&quot;#ffffcc&quot;&gt;Bluetooth HC-05&lt;/font&gt;&lt;/h1&gt;" style="text;html=1;spacing=5;spacingTop=-20;whiteSpace=wrap;overflow=hidden;rounded=0;align=center;verticalAlign=middle;strokeColor=#000000;strokeWidth=6;" vertex="1" parent="dRBJDxNIwV2UQg4q_vEd-1">
          <mxGeometry x="1707" y="1725" width="687" height="156" as="geometry" />
        </mxCell>
        <mxCell id="8xmBWsNR_HgKUjJ1fYXX-4" value="&lt;h1 style=&quot;font-size: 43px;&quot;&gt;&lt;font color=&quot;#ffffcc&quot;&gt;Engine ON/OFF&lt;/font&gt;&lt;/h1&gt;&lt;div style=&quot;font-size: 43px;&quot;&gt;&lt;font style=&quot;font-size: 43px;&quot; color=&quot;#ffffcc&quot;&gt;INT0 (PD2)&lt;/font&gt;&lt;/div&gt;" style="text;html=1;spacing=5;spacingTop=-20;whiteSpace=wrap;overflow=hidden;rounded=0;align=center;verticalAlign=middle;strokeColor=#000000;strokeWidth=6;" vertex="1" parent="dRBJDxNIwV2UQg4q_vEd-1">
          <mxGeometry x="616" y="1471" width="378" height="156" as="geometry" />
        </mxCell>
        <mxCell id="8xmBWsNR_HgKUjJ1fYXX-5" style="edgeStyle=orthogonalEdgeStyle;rounded=0;orthogonalLoop=1;jettySize=auto;html=1;exitX=0.25;exitY=1;exitDx=0;exitDy=0;entryX=0.569;entryY=-0.051;entryDx=0;entryDy=0;entryPerimeter=0;strokeWidth=6;strokeColor=#F19C99;" edge="1" parent="dRBJDxNIwV2UQg4q_vEd-1" source="dRBJDxNIwV2UQg4q_vEd-7" target="8xmBWsNR_HgKUjJ1fYXX-4">
          <mxGeometry relative="1" as="geometry" />
        </mxCell>
        <mxCell id="8xmBWsNR_HgKUjJ1fYXX-8" style="edgeStyle=orthogonalEdgeStyle;rounded=0;orthogonalLoop=1;jettySize=auto;html=1;exitX=1;exitY=0.5;exitDx=0;exitDy=0;entryX=0;entryY=0.5;entryDx=0;entryDy=0;strokeWidth=6;strokeColor=#007FFF;" edge="1" parent="dRBJDxNIwV2UQg4q_vEd-1" source="8xmBWsNR_HgKUjJ1fYXX-6" target="8xmBWsNR_HgKUjJ1fYXX-7">
          <mxGeometry relative="1" as="geometry" />
        </mxCell>
        <mxCell id="8xmBWsNR_HgKUjJ1fYXX-6" value="&lt;h1 style=&quot;font-size: 43px;&quot;&gt;&lt;font color=&quot;#ffffcc&quot;&gt;UART&lt;/font&gt;&lt;/h1&gt;" style="text;html=1;spacing=5;spacingTop=-20;whiteSpace=wrap;overflow=hidden;rounded=0;align=center;verticalAlign=middle;strokeColor=default;strokeWidth=12;" vertex="1" parent="dRBJDxNIwV2UQg4q_vEd-1">
          <mxGeometry x="1809" y="1099" width="190" height="72" as="geometry" />
        </mxCell>
        <mxCell id="8xmBWsNR_HgKUjJ1fYXX-7" value="&lt;h1 style=&quot;font-size: 43px;&quot;&gt;&lt;font color=&quot;#ffffcc&quot;&gt;Bluetooth&lt;/font&gt;&lt;/h1&gt;&lt;h1 style=&quot;font-size: 43px;&quot;&gt;&lt;font color=&quot;#ffffcc&quot;&gt;RX(PD0),TX(PD1)&lt;/font&gt;&lt;/h1&gt;" style="text;html=1;spacing=5;spacingTop=-20;whiteSpace=wrap;overflow=hidden;rounded=0;align=center;verticalAlign=middle;strokeColor=#000000;strokeWidth=6;" vertex="1" parent="dRBJDxNIwV2UQg4q_vEd-1">
          <mxGeometry x="2566" y="1091" width="510" height="185" as="geometry" />
        </mxCell>
      </root>
    </mxGraphModel>
  </diagram>
</mxfile>
